<?xml version="1.0" encoding="utf-8"?>
<!-- Svg Vector Icons : http://www.onlinewebfonts.com/icon -->
<!DOCTYPE svg PUBLIC "-//W3C//DTD SVG 1.1//EN" "http://www.w3.org/Graphics/SVG/1.1/DTD/svg11.dtd">
<svg version="1.1" xmlns="http://www.w3.org/2000/svg" xmlns:xlink="http://www.w3.org/1999/xlink" x="0px" y="0px" viewBox="0 0 1000 1000" enable-background="new 0 0 1000 1000" xml:space="preserve">
<metadata> Svg Vector Icons : http://www.onlinewebfonts.com/icon </metadata>
<g><path d="M957.3,780.1c0,18.9-7,35.3-20.9,49.2c-14,14-30.4,20.8-49.5,20.8H640.6c0,38.7-13.8,71.6-41.2,99c-27.5,27.4-60.6,41-99.5,41c-38.8,0-72-13.6-99.5-41c-27.5-27.4-41.2-60.3-41.2-99H113c-19.1,0-35.6-6.8-49.5-20.8c-13.9-13.8-20.9-30.3-20.9-49.2c69.6-58.8,122.2-131.2,157.7-217.5c35.5-86.2,53.3-177.1,53.3-272.6c0-60.2,17.6-107.9,52.8-143.3c35.2-35.4,83.5-56.7,145.1-64c-3-6.5-4.4-13.3-4.4-20.2c0-14.6,5.1-26.9,15.4-37.2C472.9,15.1,485.4,10,500,10c14.6,0,27.1,5.1,37.3,15.3c10.3,10.2,15.4,22.6,15.4,37.2c0,7-1.5,13.7-4.4,20.2c61.6,7.3,109.9,28.6,145.1,64c35.2,35.4,52.8,83.1,52.8,143.3c0,95.5,17.7,186.4,53.3,272.6C835.1,648.9,887.7,721.3,957.3,780.1z M508.7,937.5c0-5.8-2.9-8.7-8.8-8.7c-21.7,0-40.2-7.8-55.8-23.3c-15.6-15.5-23.4-34-23.4-55.5c0-5.8-3-8.8-8.8-8.8c-5.8,0-8.8,3-8.8,8.8c0,26.7,9.4,49.4,28.3,68.1c18.9,18.8,41.7,28.1,68.4,28.1C505.8,946.3,508.7,943.4,508.7,937.5z"/></g>
</svg>