<?xml version="1.0" encoding="utf-8"?>
<!-- Svg Vector Icons : http://www.onlinewebfonts.com/icon -->
<!DOCTYPE svg PUBLIC "-//W3C//DTD SVG 1.1//EN" "http://www.w3.org/Graphics/SVG/1.1/DTD/svg11.dtd">
<svg version="1.1" xmlns="http://www.w3.org/2000/svg" xmlns:xlink="http://www.w3.org/1999/xlink" x="0px" y="0px" viewBox="0 0 1000 1000" enable-background="new 0 0 1000 1000" xml:space="preserve">
<metadata> Svg Vector Icons : http://www.onlinewebfonts.com/icon </metadata>
<g><g transform="translate(0.000000,511.000000) scale(0.100000,-0.100000)"><path d="M6992,3977.7l-969.3-969.3l286.9-285l285-286.9l475,475l475,475V2227V1069.6h407.1h407.1v1153.5c0,633.9,5.8,1153.5,13.6,1153.5c9.7,0,226.8-211.3,484.7-469.2l471.1-471.1l285,286.9l286.9,285l-969.3,969.3L7961.3,4947L6992,3977.7z"/><path d="M100-1004.7V-4727h3722.3h3722.3l-3.9,2493.1l-5.8,2495.1l-168.7,34.9c-186.1,36.8-378,96.9-533.1,164.8l-102.7,44.6v-2210.1v-2208.2h-2908h-2908v2908v2908h2208.1h2206.2l-65.9,166.7c-56.2,139.6-116.3,350.9-168.7,595.2l-11.6,52.3H2591.2H100V-1004.7z"/><path d="M1767.3,236v-814.2h814.2h814.2V236v814.2h-814.2h-814.2V236z"/><path d="M4248.8,236v-814.2H5063h814.2V236v814.2H5063h-814.2V236z"/><path d="M1767.3-2245.5v-814.2h814.2h814.2v814.2v814.2h-814.2h-814.2V-2245.5z"/><path d="M4248.8-2245.5v-814.2H5063h814.2v814.2v814.2H5063h-814.2V-2245.5z"/></g></g>
</svg>